<svg xmlns="http://www.w3.org/2000/svg" width="115.333" height="134.368" viewBox="0 0 115.333 134.368">
  <g id="icon-video_gallery" data-name="icon-video gallery" transform="translate(1.5 1.5)">
    <g id="icon-video_gallery-2" data-name="icon-video gallery">
      <g id="film">
        <path id="Path_9" data-name="Path 9" d="M435.315,137.674a3.335,3.335,0,0,0-3.432.178L416.028,148.53v27.916l15.856,10.678a3.336,3.336,0,0,0,5.2-2.767V140.619a3.336,3.336,0,0,0-1.769-2.946Zm0,0" transform="translate(-324.751 -106.985)" fill="none" stroke="#000" stroke-width="3"/>
        <path id="Path_10" data-name="Path 10" d="M84.6,129.657a5.835,5.835,0,0,0-5.828-5.829H5.828A5.835,5.835,0,0,0,0,129.657v46.791a5.834,5.834,0,0,0,5.828,5.828H38.965V167.693a15.018,15.018,0,1,1,6.674,0v14.583H78.776a5.834,5.834,0,0,0,5.828-5.828ZM8.7,137.094a3.337,3.337,0,0,1,0-6.674,3.337,3.337,0,0,1,0,6.674Zm10.619,0a3.337,3.337,0,1,1,3.336-3.336A3.4,3.4,0,0,1,19.322,137.094Zm48.66-6.674h8.947a3.337,3.337,0,0,1,0,6.674H67.982a3.337,3.337,0,0,1,0-6.674Zm-3.336,14.373a3.336,3.336,0,0,1,3.336-3.336h8.947a3.336,3.336,0,1,1,0,6.673H67.982A3.336,3.336,0,0,1,64.645,144.793Zm0,0" transform="translate(0 -96.483)" fill="none" stroke="#000" stroke-width="3"/>
        <path id="Path_11" data-name="Path 11" d="M104.679,10.248A10.248,10.248,0,1,0,94.432,20.5,10.259,10.259,0,0,0,104.679,10.248Zm0,0" transform="translate(-65.714)" fill="none" stroke="#000" stroke-width="3"/>
        <path id="Path_12" data-name="Path 12" d="M218.263,20.5a10.248,10.248,0,1,0-10.247-10.248A10.259,10.259,0,0,0,218.263,20.5Zm0,0" transform="translate(-162.377 0)" fill="none" stroke="#000" stroke-width="3"/>
        <path id="Path_13" data-name="Path 13" d="M171.46,227.334a8.345,8.345,0,1,0-11.682,7.646v-6.625a3.337,3.337,0,0,1,6.674,0v6.625a8.356,8.356,0,0,0,5.008-7.646Zm0,0" transform="translate(-120.813 -170.819)"/>
      </g>
      <text id="Video_Gallery" data-name="Video 
Gallery" transform="translate(56 105.868)" font-size="18" font-family="Montserrat-Medium, Montserrat" font-weight="500"><tspan x="-28.575" y="0">Video </tspan><tspan x="-31.716" y="22">Gallery</tspan></text>
    </g>
  </g>
</svg>
